<svg xmlns="http://www.w3.org/2000/svg" viewBox="0 0 200 400" fill="#64748b">
  <title>Male - Underweight</title>
  <!-- Head -->
  <circle cx="100" cy="40" r="28"/>
  <!-- Neck -->
  <rect x="90" y="68" width="20" height="20" rx="4"/>
  <!-- Torso (narrow) -->
  <path d="M75 88 L65 200 L85 210 L100 215 L115 210 L135 200 L125 88 Z"/>
  <!-- Arms (thin) -->
  <path d="M75 88 L55 180 L62 182 L80 105 Z"/>
  <path d="M125 88 L145 180 L138 182 L120 105 Z"/>
  <!-- Legs (thin) -->
  <path d="M80 210 L75 350 L90 350 L100 215 Z"/>
  <path d="M120 210 L125 350 L110 350 L100 215 Z"/>
  <!-- Feet -->
  <rect x="70" y="350" width="25" height="10" rx="5"/>
  <rect x="105" y="350" width="25" height="10" rx="5"/>
</svg>
